<svg xmlns="http://www.w3.org/2000/svg" version="1.1" xmlns:xlink="http://www.w3.org/1999/xlink" xmlns:svgjs="http://svgjs.dev/svgjs" width="1000" height="1000" viewBox="0 0 1000 1000"><rect width="1000" height="1000" fill="#ffffff"></rect><g transform="matrix(0.7,0,0,0.7,150.06599312544245,242.75)"><svg viewBox="0 0 272 200" data-background-color="#ffffff" preserveAspectRatio="xMidYMid meet" height="735" width="1000" xmlns="http://www.w3.org/2000/svg" xmlns:xlink="http://www.w3.org/1999/xlink"><g id="tight-bounds" transform="matrix(1,0,0,1,-0.025643043029077717,0)"><svg viewBox="0 0 272.05128205128204 200" height="200" width="272.05128205128204"><g><svg viewBox="0 0 272.0512820512821 200.00000000000003" height="200" width="272.05128205128204"><g><svg viewBox="0 0 272.0512820512821 200.00000000000003" height="200.00000000000003" width="272.0512820512821"><g><svg viewBox="0 0 272.0512820512821 200.00000000000003" height="200.00000000000003" width="272.0512820512821"><g><svg viewBox="0 0 272.0512820512821 200.00000000000003" height="200.00000000000003" width="272.0512820512821"><g transform="matrix(1,0,0,1,0,0)"><svg width="272.0512820512821" viewBox="0.8999999761581421 -35.5 53.04999923706055 36" height="200.00000000000003" data-palette-color="#ba3b0a"><svg></svg><g class="undefined-text-0" data-fill-palette-color="primary" id="text-0"><path xmlns="http://www.w3.org/2000/svg" d="M5.85 0v-1.5h18.4l-10.6-29.15-11.15 30.65h-1.6l12.75-35.05 12.75 35.05zM52.6-7.05l1.35 0.65c-0.9 2.2-2.167 3.9-3.8 5.1-1.633 1.2-4.083 1.8-7.35 1.8v0c-4.1 0-7.067-1.26-8.9-3.78-1.833-2.513-2.75-6.437-2.75-11.77v0-4.9c0-5.333 0.917-9.26 2.75-11.78 1.833-2.513 4.8-3.77 8.9-3.77v0c3.267 0 5.717 0.6 7.35 1.8 1.633 1.2 2.9 2.9 3.8 5.1v0l-1.35 0.65c-0.767-1.933-1.85-3.427-3.25-4.48-1.4-1.047-3.583-1.57-6.55-1.57v0c-1.633 0-3.033 0.207-4.2 0.62-1.167 0.42-2.217 1.13-3.15 2.13-0.933 1-1.633 2.44-2.1 4.32-0.467 1.887-0.7 4.213-0.7 6.98v0 4.9c0 2.767 0.233 5.09 0.7 6.97 0.467 1.887 1.167 3.33 2.1 4.33 0.933 1 1.983 1.707 3.15 2.12 1.167 0.42 2.567 0.63 4.2 0.63v0c2.967 0 5.15-0.527 6.55-1.58 1.4-1.047 2.483-2.537 3.25-4.47z" fill="#000000" fill-rule="nonzero" stroke="none" stroke-width="1" stroke-linecap="butt" stroke-linejoin="miter" stroke-miterlimit="10" stroke-dasharray="" stroke-dashoffset="0" font-family="none" font-weight="none" font-size="none" text-anchor="none" style="mix-blend-mode: normal" data-fill-palette-color="primary" opacity="1"></path></g></svg></g></svg></g></svg></g></svg></g></svg></g><defs></defs></svg><rect width="272.05128205128204" height="200" fill="none" stroke="none" visibility="hidden"></rect></g></svg></g></svg>